<?xml version="1.0" encoding="UTF-8" standalone="no"?>
<svg width="800px" height="800px" viewBox="0 0 800 800" version="1.1" xmlns="http://www.w3.org/2000/svg" xmlns:xlink="http://www.w3.org/1999/xlink" xmlns:sketch="http://www.bohemiancoding.com/sketch/ns">
    <!-- Generator: Sketch 3.0.4 (8053) - http://www.bohemiancoding.com/sketch -->
    <title>parts</title>
    <desc>Created with Sketch.</desc>
    <defs></defs>
    <g id="Page-1" stroke="none" stroke-width="1" fill="none" fill-rule="evenodd" sketch:type="MSPage">
        <path d="M181.561,457.648276 L181.561,457.648276 L170.061,469.544828 C169.7895,469.824138 169.4145,470 169,470 C168.586,470 168.211,469.824138 167.9395,469.544828 L161.4395,462.82069 C161.168,462.541379 161,462.153448 161,461.724138 C161,460.865517 161.672,460.172414 162.5,460.172414 C162.9145,460.172414 163.2895,460.348276 163.561,460.627586 L169,466.255172 L179.4395,455.455172 C179.711,455.175862 180.086,455 180.5,455 C181.3285,455 182,455.693103 182,456.551724 C182,456.981034 181.8325,457.368966 181.561,457.648276" id="Fill-186" stroke="#FFFFFF" fill="#FFFFFF" sketch:type="MSShapeGroup"></path>
        <path d="M135.887321,349.509434 L135.886264,349.509434 C135.011396,349.509434 134.301887,348.799925 134.301887,347.924528 L134.301887,345.411396 L126.422792,353.290491 L126.421208,353.288377 C126.135925,353.564679 125.748679,353.735849 125.320755,353.735849 C124.445358,353.735849 123.735849,353.02634 123.735849,352.150943 C123.735849,351.723019 123.907547,351.336302 124.183321,351.051019 L124.181208,351.048906 L132.06083,343.169811 L129.54717,343.169811 C128.671774,343.169811 127.962264,342.460302 127.962264,341.584906 C127.962264,340.709509 128.671774,340 129.54717,340 L135.886792,340 C136.762189,340 137.471698,340.709509 137.471698,341.584906 L137.471698,347.924528 C137.471698,348.799925 136.762189,349.509434 135.887321,349.509434 L135.887321,349.509434 Z M123.207547,343.169811 L113.169811,343.169811 L113.169811,364.301887 L134.301887,364.301887 L134.301887,350.654792 C134.769962,350.926868 135.306717,351.09434 135.886792,351.09434 C136.467396,351.09434 137.003623,350.926868 137.471698,350.654792 L137.471698,365.886792 C137.471698,366.762189 136.762189,367.471698 135.886792,367.471698 L111.584906,367.471698 C110.709509,367.471698 110,366.762189 110,365.886792 L110,341.584906 C110,340.709509 110.709509,340 111.584906,340 L126.816906,340 C126.54483,340.468075 126.377358,341.00483 126.377358,341.584906 C126.377358,342.165509 126.54483,342.701736 126.816906,343.169811 L123.207547,343.169811 L123.207547,343.169811 Z" id="share" fill="#949599" sketch:type="MSShapeGroup"></path>
        <path d="M88.4372187,352.132262 L88.4372187,352.132262 L81.1342031,357.484393 L83.9472031,366.192393 C83.9916094,366.327803 84.015625,366.472393 84.015625,366.622951 C84.015625,367.383541 83.4070781,368 82.65625,368 C82.3585469,368 82.0835,367.902689 81.8601094,367.738361 L81.8596563,367.73882 L74.5,362.345836 L67.1403437,367.73882 L67.1403437,367.738361 C66.9160469,367.902689 66.6414531,368 66.34375,368 C65.5929219,368 64.984375,367.383541 64.984375,366.622951 C64.984375,366.472393 65.0083906,366.327803 65.0527969,366.192393 L67.8657969,357.484393 L60.5627813,352.132262 C60.2220313,351.881639 60,351.47541 60,351.016393 C60,350.255803 60.6085469,349.639344 61.359375,349.639344 L70.4005781,349.639344 L73.2004375,340.973115 C73.3708125,340.409443 73.8882813,340 74.5,340 C75.1121719,340 75.6291875,340.409443 75.7995625,340.973115 L78.5994219,349.639344 L87.640625,349.639344 C88.3914531,349.639344 89,350.255803 89,351.016393 C89,351.47541 88.7779687,351.881639 88.4372187,352.132262" id="Bookmark" fill="#949599" sketch:type="MSShapeGroup"></path>
        <g id="Like" sketch:type="MSLayerGroup" transform="translate(10.000000, 341.000000)" fill="#949599">
            <path d="M0,13.6851995 L0,20.6109138 C0,24.4991995 4.54688,24.9277709 6.06666667,24.9277709 C7.58552889,24.9277709 5.48888889,24.1097709 5.48888889,21.7000566 L5.48888889,12.5960566 C5.48888889,10.0697709 7.58552889,9.2257709 6.06666667,9.2257709 C4.54688,9.2257709 0,9.79719947 0,13.6851995 Z" id="Imported-Layers" sketch:type="MSShapeGroup"></path>
            <path d="M22.4442222,0.102056616 C21.7199778,-0.786229099 19.2647111,4.35205662 15.7778222,6.67862804 C13.8541111,7.96205662 9.37777778,10.6937709 9.37777778,12.2031995 L9.37777778,21.9749138 C9.37777778,23.7920566 16.4752,25.7143423 21.8707778,25.7143423 C23.8462,25.7143423 26.7111111,13.4640566 26.7111111,11.5177709 C26.7111111,9.56434233 20.6155556,9.5977709 20.4251778,9.0897709 C20.2348,8.58205662 25.5379333,3.8977709 22.4442222,0.102056616 Z" id="Imported-Layers-17" stroke="#949599" stroke-width="2.5" fill-opacity="0" sketch:type="MSShapeGroup"></path>
        </g>
        <g id="active" sketch:type="MSLayerGroup" transform="translate(10.000000, 390.000000)">
            <path d="M78.4372187,12.1322623 L78.4372187,12.1322623 L71.1342031,17.4843934 L73.9472031,26.1923934 C73.9916094,26.3278033 74.015625,26.4723934 74.015625,26.6229508 C74.015625,27.383541 73.4070781,28 72.65625,28 C72.3585469,28 72.0835,27.9026885 71.8601094,27.7383607 L71.8596563,27.7388197 L64.5,22.3458361 L57.1403437,27.7388197 L57.1403437,27.7383607 C56.9160469,27.9026885 56.6414531,28 56.34375,28 C55.5929219,28 54.984375,27.383541 54.984375,26.6229508 C54.984375,26.4723934 55.0083906,26.3278033 55.0527969,26.1923934 L57.8657969,17.4843934 L50.5627813,12.1322623 C50.2220313,11.8816393 50,11.4754098 50,11.0163934 C50,10.2558033 50.6085469,9.63934426 51.359375,9.63934426 L60.4005781,9.63934426 L63.2004375,0.973114754 C63.3708125,0.409442623 63.8882812,0 64.5,0 C65.1121719,0 65.6291875,0.409442623 65.7995625,0.973114754 L68.5994219,9.63934426 L77.640625,9.63934426 C78.3914531,9.63934426 79,10.2558033 79,11.0163934 C79,11.4754098 78.7779687,11.8816393 78.4372187,12.1322623" id="Bookmark-2" fill="#D23E39" sketch:type="MSShapeGroup"></path>
            <g id="Like-2" transform="translate(0.000000, 1.000000)" sketch:type="MSShapeGroup">
                <path d="M0,13.6851995 L0,20.6109138 C0,24.4991995 4.54688,24.9277709 6.06666667,24.9277709 C7.58552889,24.9277709 5.48888889,24.1097709 5.48888889,21.7000566 L5.48888889,12.5960566 C5.48888889,10.0697709 7.58552889,9.2257709 6.06666667,9.2257709 C4.54688,9.2257709 0,9.79719947 0,13.6851995 Z" id="Imported-Layers" fill="#5890FF"></path>
                <path d="M22.4442222,0.102056616 C21.7199778,-0.786229099 19.2647111,4.35205662 15.7778222,6.67862804 C13.8541111,7.96205662 9.37777778,10.6937709 9.37777778,12.2031995 L9.37777778,21.9749138 C9.37777778,23.7920566 16.4752,25.7143423 21.8707778,25.7143423 C23.8462,25.7143423 26.7111111,13.4640566 26.7111111,11.5177709 C26.7111111,9.56434233 20.6155556,9.5977709 20.4251778,9.0897709 C20.2348,8.58205662 25.5379333,3.8977709 22.4442222,0.102056616 Z" id="Imported-Layers-17" stroke="#5890FF" stroke-width="2.5" fill-opacity="0" fill="#949599"></path>
            </g>
        </g>
        <path d="M71.8153846,473.630769 C65.2899692,473.630769 60,468.341169 60,461.815385 C60,455.289969 65.2899692,450 71.8153846,450 C78.3408,450 83.6307692,455.289969 83.6307692,461.815385 C83.6307692,468.341169 78.3408,473.630769 71.8153846,473.630769 L71.8153846,473.630769 Z M71.8153846,452.215385 C66.5136,452.215385 62.2153846,456.5136 62.2153846,461.815385 C62.2153846,467.117538 66.5136,471.415385 71.8153846,471.415385 C77.1175385,471.415385 81.4153846,467.117538 81.4153846,461.815385 C81.4153846,456.5136 77.1175385,452.215385 71.8153846,452.215385 L71.8153846,452.215385 Z M71.8153846,468.830769 C67.9410462,468.830769 64.8,465.689723 64.8,461.815385 C64.8,457.941046 67.9410462,454.8 71.8153846,454.8 C75.6897231,454.8 78.8307692,457.941046 78.8307692,461.815385 C78.8307692,465.689723 75.6897231,468.830769 71.8153846,468.830769 L71.8153846,468.830769 Z M71.8153846,457.015385 C69.1643077,457.015385 67.0153846,459.164308 67.0153846,461.815385 C67.0153846,464.466462 69.1643077,466.615385 71.8153846,466.615385 C74.4664615,466.615385 76.6153846,464.466462 76.6153846,461.815385 C76.6153846,459.164308 74.4664615,457.015385 71.8153846,457.015385 L71.8153846,457.015385 Z M71.8153846,464.030769 C70.5917538,464.030769 69.6,463.039015 69.6,461.815385 C69.6,460.591754 70.5917538,459.6 71.8153846,459.6 C73.0390154,459.6 74.0307692,460.591754 74.0307692,461.815385 C74.0307692,463.039015 73.0390154,464.030769 71.8153846,464.030769 L71.8153846,464.030769 Z" id="Imported-Layers" fill="#949599" sketch:type="MSShapeGroup"></path>
        <path d="M21.8153846,473.630769 C15.2899692,473.630769 10,468.341169 10,461.815385 C10,455.289969 15.2899692,450 21.8153846,450 C28.3408,450 33.6307692,455.289969 33.6307692,461.815385 C33.6307692,468.341169 28.3408,473.630769 21.8153846,473.630769 L21.8153846,473.630769 Z M21.8153846,452.215385 C16.5136,452.215385 12.2153846,456.5136 12.2153846,461.815385 C12.2153846,467.117538 16.5136,471.415385 21.8153846,471.415385 C27.1171692,471.415385 31.4153846,467.117538 31.4153846,461.815385 C31.4153846,456.5136 27.1171692,452.215385 21.8153846,452.215385 L21.8153846,452.215385 Z M26.6153846,462.923077 L21.8153846,462.923077 C21.2035692,462.923077 20.7076923,462.4272 20.7076923,461.815385 L20.7076923,455.169231 C20.7076923,454.557415 21.2035692,454.061538 21.8153846,454.061538 C22.4272,454.061538 22.9230769,454.557415 22.9230769,455.169231 L22.9230769,460.707692 L26.6153846,460.707692 C27.2272,460.707692 27.7230769,461.203569 27.7230769,461.815385 C27.7230769,462.4272 27.2272,462.923077 26.6153846,462.923077 L26.6153846,462.923077 Z" id="Time" fill="#949599" sketch:type="MSShapeGroup"></path>
        <g id="Page-top" sketch:type="MSLayerGroup" transform="translate(10.000000, 260.000000)" fill="#FFFFFF">
            <path d="M7.426,34.954 L23.144,19.236 L39.067,35.16 L39.068,35.159 C39.608,35.679 40.342,36 41.15,36 C42.807,36 44.15,34.657 44.15,33 C44.15,32.191 43.83,31.458 43.309,30.918 L43.31,30.917 L25.31,12.917 L25.309,12.918 C24.764,12.353 23.998,12 23.15,12 L23.144,12 L23.137,12 C22.289,12 21.524,12.353 20.978,12.918 L20.977,12.917 L2.977,30.917 L2.985,30.925 C2.469,31.464 2.15,32.195 2.15,33 C2.15,34.657 3.494,36 5.15,36 C6.061,36 6.875,35.594 7.426,34.954" id="Fill-1" sketch:type="MSShapeGroup"></path>
            <path d="M43.15,6 L3.15,6 C1.493,6 0.15,4.657 0.15,3 C0.15,1.343 1.493,0 3.15,0 L43.15,0 C44.807,0 46.15,1.343 46.15,3 C46.15,4.657 44.807,6 43.15,6" id="Fill-2" sketch:type="MSShapeGroup"></path>
        </g>
        <path d="M44.4730462,529.773662 C45.0739692,530.374585 45.4461538,531.205354 45.4461538,532.123077 C45.4461538,533.958523 43.9585231,535.446154 42.1230769,535.446154 C41.2053538,535.446154 40.3745846,535.074523 39.7731077,534.473046 L30.0342769,524.733662 C28.0559385,525.902277 25.7563692,526.584615 23.2923077,526.584615 C15.9510769,526.584615 10,520.633538 10,513.292308 C10,505.951631 15.9510769,500 23.2923077,500 C30.6335385,500 36.5846154,505.951631 36.5846154,513.292308 C36.5846154,515.756369 35.9022769,518.055938 34.7336615,520.034277 L44.4730462,529.773662 L44.4730462,529.773662 Z M23.2923077,503.323077 C17.7865231,503.323077 13.3230769,507.786523 13.3230769,513.292308 C13.3230769,518.798092 17.7865231,523.261538 23.2923077,523.261538 C28.7980923,523.261538 33.2615385,518.798092 33.2615385,513.292308 C33.2615385,507.786523 28.7980923,503.323077 23.2923077,503.323077 L23.2923077,503.323077 Z" id="Imported-Layers" fill="#949599" sketch:type="MSShapeGroup"></path>
        <path d="M13.9255814,570.79496 L25.6226977,582.74064 L37.4731163,570.6384 L37.4738605,570.63916 C37.8757209,570.24396 38.4212093,570 39.0232558,570 C40.2563721,570 41.255814,571.02068 41.255814,572.28 C41.255814,572.89484 41.0169302,573.45268 40.6299535,573.86232 L40.6306977,573.86308 L27.2353488,587.54308 L27.2346047,587.54232 C26.8282791,587.97248 26.2589767,588.24 25.627907,588.24 L25.6226977,588.24 L25.6182326,588.24 C24.9871628,588.24 24.4178605,587.97248 24.0115349,587.54232 L24.0107907,587.54308 L10.6154419,573.86308 L10.6213953,573.857 C10.2366512,573.44736 10,572.8918 10,572.28 C10,571.02068 10.9994419,570 12.2325581,570 C12.9097674,570 13.5162791,570.30856 13.9255814,570.79496" id="Imported-Layers" fill="#949599" sketch:type="MSShapeGroup"></path>
        <path d="M71.330814,570.46024 L78.2759767,577.37616 L85.3121628,570.3696 L85.3126047,570.37004 C85.5512093,570.14124 85.875093,570 86.2325581,570 C86.9647209,570 87.5581395,570.59092 87.5581395,571.32 C87.5581395,571.67596 87.4163023,571.99892 87.1865349,572.23608 L87.1869767,572.23652 L79.2334884,580.15652 L79.2330465,580.15608 C78.9917907,580.40512 78.6537674,580.56 78.2790698,580.56 L78.2759767,580.56 L78.2733256,580.56 C77.8986279,580.56 77.5606047,580.40512 77.3193488,580.15608 L77.318907,580.15652 L69.3654186,572.23652 L69.3689535,572.233 C69.1405116,571.99584 69,571.6742 69,571.32 C69,570.59092 69.5934186,570 70.3255814,570 C70.7276744,570 71.0877907,570.17864 71.330814,570.46024" id="header-arrow" fill="#949599" sketch:type="MSShapeGroup"></path>
        <path d="M110.50208,572.453488 L118.04672,579.764651 L110.4032,587.170698 L110.40368,587.171163 C110.15408,587.422326 110,587.763256 110,588.139535 C110,588.910233 110.64464,589.534884 111.44,589.534884 C111.82832,589.534884 112.18064,589.385581 112.43936,589.143721 L112.43984,589.144186 L121.07984,580.772093 L121.07936,580.771628 C121.35104,580.51814 121.52,580.16186 121.52,579.767442 L121.52,579.764651 L121.52,579.761395 C121.52,579.366977 121.35104,579.011163 121.07936,578.757209 L121.07984,578.756744 L112.43984,570.384651 L112.436,570.388372 C112.17728,570.147907 111.82688,570 111.44,570 C110.64464,570 110,570.624651 110,571.395349 C110,571.818605 110.19488,572.197674 110.50208,572.453488" id="side-arrow" fill="#949599" sketch:type="MSShapeGroup"></path>
        <path d="M134.106255,462.266315 C134.106757,462.266817 134.106757,462.267823 134.106757,462.268326 C134.115305,462.310058 134.121339,462.352796 134.126367,462.396037 C134.127372,462.403579 134.129383,462.411121 134.129886,462.419166 C134.134411,462.461904 134.13592,462.505145 134.136925,462.548888 C134.136925,462.557436 134.137931,462.565481 134.137931,462.573526 C134.137931,462.946101 134.002175,463.286999 133.777926,463.549964 L133.778932,463.550466 L125.231328,473.606471 L125.230322,473.605968 C124.953782,473.93128 124.542491,474.137931 124.081926,474.137931 C124.032652,474.137931 123.984383,474.135417 123.936114,474.130389 C123.901924,474.127372 123.868236,474.121841 123.835051,474.116311 C123.823487,474.114299 123.811923,474.113294 123.800358,474.11078 C123.530354,474.059997 123.285993,473.936308 123.087387,473.761836 L123.085376,473.76435 L110.51537,462.199945 L110.520398,462.193911 C110.212182,461.922902 110.013576,461.531221 110.006536,461.089762 L110,461.089762 L110,451.51192 L110.00352,451.51192 C110.00352,450.67878 110.67878,450.00352 111.51192,450.00352 L111.51192,450 L121.061605,450 L121.061605,450.004022 C121.062611,450.004022 121.064119,450.00352 121.065125,450.00352 C121.482952,450.00352 121.860555,450.173466 122.134078,450.447995 L133.684405,461.496527 C133.894073,461.70167 134.04441,461.967651 134.106255,462.266315 L134.106255,462.266315 Z M113.87931,451.724138 C112.689116,451.724138 111.724138,452.689116 111.724138,453.87931 C111.724138,455.069504 112.689116,456.034483 113.87931,456.034483 C115.069504,456.034483 116.034483,455.069504 116.034483,453.87931 C116.034483,452.689116 115.069504,451.724138 113.87931,451.724138 L113.87931,451.724138 Z" id="Imported-Layers-3" fill="#949599" sketch:type="MSShapeGroup"></path>
        <path d="M50,720 C27.90875,720 10,702.09125 10,680 C10,657.90875 27.90875,640 50,640 C72.09125,640 90,657.90875 90,680 C90,702.09125 72.09125,720 50,720 L50,720 Z M50,647.5 C32.05125,647.5 17.5,662.05 17.5,680 C17.5,697.94875 32.05125,712.5 50,712.5 C67.94875,712.5 82.5,697.94875 82.5,680 C82.5,662.05 67.94875,647.5 50,647.5 L50,647.5 Z M49.98125,697.5 C40,697.5 43.2425,686.5375 43.2425,686.5375 L50.16125,660 L56.83,686.64375 C60,697.34375 49.98125,697.5 49.98125,697.5 L49.98125,697.5 Z" id="dahboard" fill="#949599" sketch:type="MSShapeGroup"></path>
        <path d="M141,512 C141,514.209 139.2095,516 137,516 C134.791,516 133,514.209 133,512 C133,514.209 131.2095,516 129,516 C126.791,516 125,514.209 125,512 C125,514.209 123.2095,516 121,516 C118.791,516 117,514.209 117,512 C117,514.209 115.2095,516 113,516 C110.791,516 109,514.209 109,512 L111.8125,504.5 L138.1875,504.5 L141,512 L141,512 Z M136,503 L114,503 C113.1715,503 112.5,502.3285 112.5,501.5 C112.5,500.6715 113.1715,500 114,500 L136,500 C136.8285,500 137.5,500.6715 137.5,501.5 C137.5,502.3285 136.8285,503 136,503 L136,503 Z M113.5,517.476 L113.5,517.475 C113.644,517.462 113.785,517.44 113.925,517.4165 C113.955,517.411 113.9865,517.4085 114.0165,517.403 C114.081,517.391 114.1435,517.373 114.2075,517.3585 C114.479,517.2965 114.745,517.2195 115,517.1195 L115,524.5 L135,524.5 L135,517.1195 C135.255,517.219 135.5205,517.296 135.792,517.358 C135.856,517.3725 135.919,517.391 135.984,517.403 C136.014,517.4085 136.045,517.411 136.075,517.4165 C136.2155,517.44 136.3565,517.462 136.5,517.475 L136.5,517.476 C136.665,517.491 136.8315,517.5 137,517.5 C137.342,517.5 137.6755,517.4645 138,517.405 L138,527.5 C138,528.3285 137.3285,529 136.5,529 L113.5,529 C112.6715,529 112,528.3285 112,527.5 L112,517.405 C112.325,517.4645 112.658,517.5 113,517.5 C113.169,517.5 113.3355,517.491 113.5,517.476 L113.5,517.476 Z" id="Fill-3" fill="#FFFFFF" sketch:type="MSShapeGroup"></path>
        <path d="M150,572.5 C150,571.672 150.6715,571 151.5,571 L159,571 L159,569.5 C159,568.6715 159.6715,568 160.5,568 L163.5,568 C164.3285,568 165,568.6715 165,569.5 L165,571 L172.5,571 C173.3285,571 174,571.672 174,572.5 L174,574 L150,574 L150,572.5 L150,572.5 Z M172.5,577 L172.5,595.5 C172.5,596.3285 171.8285,597 171,597 L153,597 C152.1715,597 151.5,596.3285 151.5,595.5 L151.5,575.5 L172.5,575.5 L172.5,577 L172.5,577 Z M157.5,580 C157.5,579.172 156.8285,578.5 156,578.5 C155.1715,578.5 154.5,579.172 154.5,580 L154.5,592.5 C154.5,593.3285 155.1715,594 156,594 C156.8285,594 157.5,593.3285 157.5,592.5 L157.5,580 L157.5,580 Z M163.5,580 C163.5,579.172 162.8285,578.5 162,578.5 C161.1715,578.5 160.5,579.172 160.5,580 L160.5,592.5 C160.5,593.3285 161.1715,594 162,594 C162.8285,594 163.5,593.3285 163.5,592.5 L163.5,580 L163.5,580 Z M169.5,580 C169.5,579.172 168.8285,578.5 168,578.5 C167.1715,578.5 166.5,579.172 166.5,580 L166.5,592.5 C166.5,593.3285 167.1715,594 168,594 C168.8285,594 169.5,593.3285 169.5,592.5 L169.5,580 L169.5,580 Z" id="Fill-4" fill="#949599" sketch:type="MSShapeGroup"></path>
        <path d="M190,572.5 C190,571.672 190.6715,571 191.5,571 L199,571 L199,569.5 C199,568.6715 199.6715,568 200.5,568 L203.5,568 C204.3285,568 205,568.6715 205,569.5 L205,571 L212.5,571 C213.3285,571 214,571.672 214,572.5 L214,574 L190,574 L190,572.5 L190,572.5 Z M212.5,577 L212.5,595.5 C212.5,596.3285 211.8285,597 211,597 L193,597 C192.1715,597 191.5,596.3285 191.5,595.5 L191.5,575.5 L212.5,575.5 L212.5,577 L212.5,577 Z M197.5,580 C197.5,579.172 196.8285,578.5 196,578.5 C195.1715,578.5 194.5,579.172 194.5,580 L194.5,592.5 C194.5,593.3285 195.1715,594 196,594 C196.8285,594 197.5,593.3285 197.5,592.5 L197.5,580 L197.5,580 Z M203.5,580 C203.5,579.172 202.8285,578.5 202,578.5 C201.1715,578.5 200.5,579.172 200.5,580 L200.5,592.5 C200.5,593.3285 201.1715,594 202,594 C202.8285,594 203.5,593.3285 203.5,592.5 L203.5,580 L203.5,580 Z M209.5,580 C209.5,579.172 208.8285,578.5 208,578.5 C207.1715,578.5 206.5,579.172 206.5,580 L206.5,592.5 C206.5,593.3285 207.1715,594 208,594 C208.8285,594 209.5,593.3285 209.5,592.5 L209.5,580 L209.5,580 Z" id="Fill-5" fill="#5890FF" sketch:type="MSShapeGroup"></path>
        <path d="M94.2391304,526.764123 L70.7608696,526.764123 C69.7882826,526.764123 69,525.982145 69,525.018055 C69,524.054546 69.7882826,523.272569 70.7608696,523.272569 C71.7334565,523.272569 72.5217391,522.491173 72.5217391,521.527082 L72.5217391,509.890507 C72.5217391,505.391807 76.2007826,501.744904 80.7391304,501.744904 C80.7391304,500.781396 81.527413,500 82.5,500 C83.472587,500 84.2608696,500.781396 84.2608696,501.744904 C88.7992174,501.744904 92.4782609,505.391807 92.4782609,509.890507 L92.4782609,521.527082 C92.4782609,522.491173 93.2665435,523.272569 94.2391304,523.272569 C95.2117174,523.272569 96,524.054546 96,525.018055 C96,525.982145 95.2117174,526.764123 94.2391304,526.764123 L94.2391304,526.764123 Z M82.5,532 C80.5548261,532 78.9782609,530.437208 78.9782609,528.509027 L86.0217391,528.509027 C86.0217391,530.437208 84.4451739,532 82.5,532 L82.5,532 Z" id="Notice" fill="#949599" sketch:type="MSShapeGroup"></path>
    </g>
</svg>